<?xml version="1.0" encoding="utf-8"?>
<!-- Generator: Adobe Illustrator 22.1.0, SVG Export Plug-In . SVG Version: 6.00 Build 0)  -->
<svg version="1.1" id="Layer_1" xmlns="http://www.w3.org/2000/svg" xmlns:xlink="http://www.w3.org/1999/xlink" x="0px" y="0px"
	 viewBox="0 0 200 200" style="enable-background:new 0 0 200 200;" xml:space="preserve">
<style type="text/css">
	.st0{fill:#FFFFFF;}
</style>
<g>
	<path class="st0" d="M10.5,73.7c0.2,1.3,1,2.4,2,3.2c0.8,0.6,1.8,0.9,2.8,0.9c0.3,0,0.6,0,0.9-0.1l58.4-10.3c2.7-0.5,4.5-3,4-5.7
		l-2.3-12.9c-0.5-2.7-3-4.5-5.7-4l-24.3,4.3c3.4-4,7.3-7.7,11.6-11c13-9.9,28.6-15.2,44.9-15.2c23.3,0,44.8,10.5,58.9,28.9
		c10,13,15.3,28.5,15.3,44.8c0,2.7,2.2,4.9,4.9,4.9l13.2,0c0,0,0,0,0,0c1.3,0,2.6-0.5,3.5-1.4c0.9-0.9,1.4-2.2,1.4-3.5
		c0-21.4-6.9-41.8-20-58.8C161.5,13.8,133.3,0,102.8,0C81.3,0,60.9,6.9,43.8,19.9C37.7,24.6,32.1,30,27.2,36.1l-4.3-24.5
		c-0.5-2.7-3-4.5-5.7-4l-13,2.3c-2.7,0.5-4.5,3-4,5.7L10.5,73.7z"/>
	<path class="st0" d="M189.5,126.3c-0.2-1.3-1-2.4-2-3.2c-1.1-0.7-2.4-1-3.7-0.8l-58.4,10.3c-2.7,0.5-4.5,3-4,5.7l2.3,12.9
		c0.5,2.7,3,4.5,5.7,4l24.3-4.3c-3.4,4-7.3,7.7-11.6,11c-13,9.9-28.6,15.2-44.9,15.2c-23.3,0-44.8-10.5-58.9-28.9
		c-10-13-15.3-28.5-15.3-44.8c0-2.7-2.2-4.9-4.9-4.9l-13.2,0c0,0,0,0,0,0c-1.3,0-2.6,0.5-3.5,1.4C0.5,100.7,0,102,0,103.3
		c0,21.4,6.9,41.8,20,58.8C38.5,186.2,66.7,200,97.2,200c21.5,0,41.9-6.9,58.9-19.9c6.2-4.7,11.8-10.2,16.6-16.2l4.3,24.5
		c0.4,2.4,2.5,4.1,4.9,4.1c0.3,0,0.6,0,0.9-0.1l13-2.3c2.7-0.5,4.5-3,4-5.7L189.5,126.3z"/>
</g>
</svg>
