<?xml version="1.0" encoding="utf-8"?>
<!-- Generator: Adobe Illustrator 22.1.0, SVG Export Plug-In . SVG Version: 6.00 Build 0)  -->
<svg version="1.1" id="Layer_1" xmlns="http://www.w3.org/2000/svg" xmlns:xlink="http://www.w3.org/1999/xlink" x="0px" y="0px"
	 viewBox="0 0 200 200" style="enable-background:new 0 0 200 200;" xml:space="preserve">
<style type="text/css">
	.st0{fill:#FF3333;stroke:#D1D3D4;stroke-width:1.5;stroke-miterlimit:10;}
	.st1{fill:#FF8F33;stroke:#D1D3D4;stroke-width:1.5;stroke-miterlimit:10;}
	.st2{fill:#FFFFFF;}
</style>
<path class="st0" d="M93.8,182.9L24,185.3c-5.1,0.2-9.4-4.1-9.6-9.7L10.3,41.9c-0.2-5.5,3.9-10.1,9-10.3l69.8-2.4
	c5.1-0.2,9.4,4.1,9.6,9.7l4.1,133.7C102.9,178.1,98.9,182.7,93.8,182.9z"/>
<path class="st1" d="M150.8,181.5l-68.1-16.6c-5-1.2-8.2-6.6-7-12l27.5-130.5c1.1-5.4,6.1-8.8,11.1-7.5l68.1,16.6
	c5,1.2,8.2,6.6,7,12l-27.5,130.5C160.8,179.3,155.8,182.7,150.8,181.5z"/>
<g>
	<path class="st2" d="M78.9,80.4c0,0.6-0.3,0.9-0.9,0.9c-2.3,0.1-6.1,0.1-11.4,0c-4.9-0.1-8.7,0-11.4,0.1l-3.3,0.2
		c-2.1,0.1-3.2,0.2-3.3,0.3c-0.6,0.3-0.9,1.3-0.8,3l0.4,11.5c0.1,2.2,0.5,3.2,1.4,3.2c2.9-0.1,7.2-0.4,13-0.9
		c5.8-0.5,10.1-0.8,13-0.9c0.6,0,0.9,0.2,1,0.7c0,0.5,0,1.3,0,2.4c0,1.1-0.1,1.9,0,2.4c0,0.6,0.1,1.4,0.2,2.6c0.1,1.2,0.2,2,0.2,2.6
		c0,0.4-0.3,0.6-0.9,0.6c-2,0.1-5.2,0.1-9.3,0.1c-4.2,0-7.3,0.1-9.4,0.1c-3.8,0.1-6,0.2-6.5,0.3c-1.3,0.2-2,0.8-2,1.8
		c0.1,2.9,0.3,7.2,0.6,12.9c0.3,5.7,0.5,10,0.6,12.9c0,1-0.3,1.4-1,1.5c-0.6,0-1.5,0-2.7-0.1c-1.2-0.1-2.1-0.1-2.7-0.1
		c-0.5,0-1.3,0.1-2.3,0.2c-1,0.1-1.8,0.2-2.3,0.2c-0.7,0-1.1-0.3-1.1-1c-0.1-3.5-0.1-8.9-0.1-16c0.1-7.1,0-12.4-0.1-16
		c-0.1-3.3-0.7-14-1.9-32l0-0.6c0-0.7,0.3-1.1,1.1-1.2c0.2,0,2.1,0,5.7-0.1c4.7-0.1,9-0.2,13-0.4c5.4-0.3,12.2-0.8,20.5-1.7
		c1.1-0.1,1.8,0.4,2,1.5c0,0.9,0.1,2.2,0.3,3.9C78.6,78.1,78.9,79.7,78.9,80.4z"/>
</g>
<g>
	<path class="st2" d="M162.7,103.1c-1.7,8.3-5.6,15-11.5,20.3c-6.2,5.5-13.2,7.8-20.9,7c0.3,3.7,1.6,7.3,3.7,10.8
		c0.1,0.2,0.2,0.5,0.1,0.7c-0.2,0.8-1.3,1.1-3.3,0.8c0,0-1.3-0.3-3.9-1c-3.5-0.9-5.5-1.4-6-1.7c-1.4-0.7-1.4-4.7-0.1-12
		c-7.1-3.4-12.2-8.8-15.4-16.2c-3.1-7.2-3.8-14.9-2.1-23.1c1.9-9.1,6.4-16.3,13.4-21.7c7.2-5.5,15-7.3,23.5-5.2
		c8.4,2,14.8,7.2,19.1,15.6C163.5,85.4,164.7,94,162.7,103.1z M152.3,100.6c1.3-6.1,0.6-11.8-2-17.2c-2.7-5.6-6.9-9.1-12.5-10.5
		c-5.5-1.3-10.6-0.1-15.4,3.8c-4.5,3.7-7.3,8.5-8.6,14.6c-1.3,6-0.6,11.8,1.9,17.1c2.7,5.7,6.8,9.3,12.3,10.6
		c5.6,1.4,10.8,0.1,15.6-3.8C148.1,111.6,151,106.7,152.3,100.6z"/>
</g>
</svg>
